<svg xmlns="http://www.w3.org/2000/svg" viewBox="0 0 32 32" width="32" height="32">
  <!-- Bee head (yellow with black stripes) -->
  <ellipse cx="16" cy="16" rx="14" ry="12" fill="#FFD700" stroke="#000" stroke-width="0.5"/>

  <!-- Black stripes on head -->
  <ellipse cx="16" cy="12" rx="12" ry="2" fill="#000"/>
  <ellipse cx="16" cy="20" rx="12" ry="2" fill="#000"/>

  <!-- Antennae -->
  <line x1="12" y1="6" x2="10" y2="2" stroke="#000" stroke-width="1.5" stroke-linecap="round"/>
  <line x1="20" y1="6" x2="22" y2="2" stroke="#000" stroke-width="1.5" stroke-linecap="round"/>
  <circle cx="10" cy="2" r="1.5" fill="#000"/>
  <circle cx="22" cy="2" r="1.5" fill="#000"/>

  <!-- Crazy bulging eyes -->
  <ellipse cx="12" cy="14" rx="4" ry="5" fill="#FFF" stroke="#000" stroke-width="1"/>
  <ellipse cx="20" cy="14" rx="4" ry="5" fill="#FFF" stroke="#000" stroke-width="1"/>

  <!-- Eye pupils (looking in different directions for crazy effect) -->
  <circle cx="11" cy="13" r="2" fill="#000"/>
  <circle cx="21" cy="15" r="2" fill="#000"/>

  <!-- White highlights on pupils -->
  <circle cx="11.5" cy="12.5" r="0.8" fill="#FFF"/>
  <circle cx="21.5" cy="14.5" r="0.8" fill="#FFF"/>

  <!-- Crazy eyebrows -->
  <path d="M8 10 L10 8 L14 9" stroke="#000" stroke-width="1.5" fill="none" stroke-linecap="round"/>
  <path d="M24 10 L22 8 L18 9" stroke="#000" stroke-width="1.5" fill="none" stroke-linecap="round"/>

  <!-- Mouth (open in crazy expression) -->
  <ellipse cx="16" cy="22" rx="3" ry="2" fill="#000"/>
  <ellipse cx="16" cy="21.5" rx="2" ry="1" fill="#FF0000"/>

  <!-- Small teeth -->
  <polygon points="15,21 15.5,20 16,21" fill="#FFF"/>
  <polygon points="16,21 16.5,20 17,21" fill="#FFF"/>

  <!-- Wing blur effect (semi-transparent) -->
  <ellipse cx="6" cy="12" rx="4" ry="8" fill="#E6E6FA" opacity="0.7" transform="rotate(-20 6 12)"/>
  <ellipse cx="26" cy="12" rx="4" ry="8" fill="#E6E6FA" opacity="0.7" transform="rotate(20 26 12)"/>

  <!-- Wing details -->
  <ellipse cx="6" cy="10" rx="2" ry="4" fill="none" stroke="#000" stroke-width="0.5" opacity="0.5" transform="rotate(-20 6 10)"/>
  <ellipse cx="26" cy="10" rx="2" ry="4" fill="none" stroke="#000" stroke-width="0.5" opacity="0.5" transform="rotate(20 26 10)"/>
</svg>
